<svg xmlns="http://www.w3.org/2000/svg" version="1.1" xmlns:xlink="http://www.w3.org/1999/xlink" xmlns:svgjs="http://svgjs.dev/svgjs" width="128" height="128" viewBox="0 0 128 128"><g transform="matrix(0.8046875,0,0,0.8046875,12.760752631578946,27.04907483625)"><svg viewBox="0 0 95 69" data-background-color="#ffffff" preserveAspectRatio="xMidYMid meet" height="92" width="128" xmlns="http://www.w3.org/2000/svg" xmlns:xlink="http://www.w3.org/1999/xlink"><g id="tight-bounds" transform="matrix(1,0,0,1,-0.24049999999999727,-0.06030275999999901)"><svg viewBox="0 0 95.481 69.12060552" height="69.12060552" width="95.481"><g><svg viewBox="0 0 95.481 69.12060552" height="69.12060552" width="95.481"><g><svg viewBox="0 0 95.481 69.12060552" height="69.12060552" width="95.481"><g id="textblocktransform"><svg viewBox="0 0 95.481 69.12060552" height="69.12060552" width="95.481" id="textblock"><g><svg viewBox="0 0 95.481 69.12060552" height="69.12060552" width="95.481"><g><svg viewBox="0 0 95.481 69.12060552" height="69.12060552" width="95.481"><g><svg version="1.0" xmlns="http://www.w3.org/2000/svg" xmlns:xlink="http://www.w3.org/1999/xlink" x="0" y="0" viewBox="0 0 100 72.392" enable-background="new 0 0 100 72.392" xml:space="preserve" width="95.481" height="69.12060552" class="icon-icon-0" data-fill-palette-color="accent" id="icon-0"><path d="M58.823 17.958c7.955 0 14.862 4.381 18.675 10.834l22.476 0.026V16.637c0-4.533-3.647-8.21-8.121-8.21H8.096C3.608 8.427 0 12.104 0 16.637l0.023 12.078 40.112 0.027C43.975 22.312 50.854 17.958 58.823 17.958" fill="#000000" data-fill-palette-color="accent"></path><path d="M21.006 4.56h-7.451l-0.861 2.715h8.931L21.006 4.56z" fill="#000000" data-fill-palette-color="accent"></path><path d="M88.191 3.112h-9.921L76.51 7.3H89.8L88.191 3.112z" fill="#000000" data-fill-palette-color="accent"></path><path d="M54.137 5.854h-8.539V1.678h8.539V5.854zM61.965 0H37.855l-4.967 7.352h33.625L61.965 0z" fill="#000000" data-fill-palette-color="accent"></path><path d="M78.663 30.97c1.243 2.767 1.977 5.813 1.977 9.055 0 12.18-9.77 22.067-21.816 22.067-12.062 0-21.829-9.888-21.829-22.067 0-3.242 0.723-6.288 1.976-9.069H0v33.252c0 4.507 3.608 8.184 8.096 8.184h83.756c4.474 0 8.121-3.677 8.121-8.184L100 30.97H78.663z" fill="#000000" data-fill-palette-color="accent"></path><path d="M70.72 32.775c-0.342-0.615-0.773-1.192-1.242-1.741-2.547-3.1-6.359-5.138-10.654-5.138-4.309 0-8.121 2.026-10.668 5.112-0.468 0.563-0.9 1.14-1.267 1.767-1.278 2.127-2.052 4.585-2.052 7.25 0 7.788 6.26 14.114 13.987 14.114 7.689 0 13.95-6.326 13.95-14.114C72.773 37.361 72.013 34.903 70.72 32.775" fill="#000000" data-fill-palette-color="accent"></path></svg></g></svg></g></svg></g></svg></g></svg></g></svg></g><defs></defs></svg><rect width="95.481" height="69.12060552" fill="none" stroke="none" visibility="hidden"></rect></g></svg></g></svg>