<svg version="1.0"  width="340" height="250" viewBox="0 0 340.000000 250.000000" preserveAspectRatio="xMidYMid meet" color-interpolation-filters="sRGB" style="margin: auto;">
<g xmlns="http://www.w3.org/2000/svg" fill="#feffff" class="icon-text-wrapper icon-svg-group iconsvg" transform="translate(114.37000274658203,66.58293914794922)"><g fill="#feffff" class="iconsvg-imagesvg icon_container" transform="translate(27.818937301635742,0)"><rect fill="#feffff" fill-opacity="0" stroke-width="2" x="0" y="0" width="55.6221198156682" height="55.6221198156682" class="image-rect"/> <svg viewBox="0 0 60 60" x="0" y="0" width="55.6221198156682" height="55.6221198156682" class="image-svg-svg bn" style="overflow: visible;"><g hollow-target=""><g><svg  fill="#000000" xml:space="preserve" version="1.1" style="shape-rendering: geometricprecision; text-rendering: geometricprecision; overflow: visible;" viewBox="0 0 333 333" x="0" y="0" fill-rule="evenodd" clip-rule="evenodd" width="60" height="60" filtersec="colorsf6129521701" filter="url(#u8Ty_5exTA0lJ903gM3Wr)"><g transform="scale(1, 1) skewX(0)"><defs><filter id="u8Ty_5exTA0lJ903gM3Wr"><feColorMatrix type="matrix" values="0 0 0 0 0.9921875  0 0 0 0 0.99609375  0 0 0 0 0.99609375  0 0 0 1 0"/></filter></defs><g><path class="fil0" d="M79 0l175 0c22,0 42,9 56,23l0 0 0 0c14,15 23,34 23,56l0 175c0,22 -9,42 -23,56l0 0 0 0c-14,14 -34,23 -56,23l-175 0c-22,0 -41,-9 -56,-23l0 0 0 0c-14,-14 -23,-34 -23,-56l0 -175c0,-22 9,-41 23,-56l0 0 0 0c15,-14 34,-23 56,-23zm175 16l-175 0c-17,0 -33,7 -44,19l0 0c-12,11 -19,27 -19,44l0 175c0,18 7,33 19,45l0 0c11,11 27,18 44,18l175 0c18,0 33,-7 45,-18l0 0c11,-12 18,-27 18,-45l0 -175c0,-17 -7,-33 -18,-44l0 0c-12,-12 -27,-19 -45,-19z"/></g></g></svg></g> <g filter="url(#colors66418706)"><svg  viewBox="0 0 36.36000000000001 51.120000000000005" width="39" height="39" x="10.5" y="10.5" class="image-svg-letter"><path transform="translate(-6.408 51.120000000000005)" d="M11.45 0L6.41 0L6.41-51.12L27.58-51.12Q30.89-51.12 33.66-49.72Q36.43-48.31 38.45-46.04Q40.46-43.78 41.62-40.90Q42.77-38.02 42.77-35.06L42.77-35.06Q42.77-31.90 41.69-28.98Q40.61-26.06 38.66-23.83Q36.72-21.60 34.02-20.23Q31.32-18.86 28.01-18.86L28.01-18.86L11.45-18.86L11.45 0ZM11.45-46.66L11.45-23.33L27.79-23.33Q30.02-23.33 31.86-24.30Q33.70-25.27 34.99-26.89Q36.29-28.51 37.01-30.64Q37.73-32.76 37.73-35.06L37.73-35.06Q37.73-37.44 36.90-39.56Q36.07-41.69 34.67-43.27Q33.26-44.86 31.36-45.76Q29.45-46.66 27.36-46.66L27.36-46.66L11.45-46.66Z"/></svg></g></g></svg> <defs><filter id="colors66418706"><feColorMatrix type="matrix" values="0 0 0 0 0.9921875  0 0 0 0 0.99609375  0 0 0 0 0.99609375  0 0 0 1 0" class="icon-fecolormatrix"/></filter> <filter id="colorsf6129521701"><feColorMatrix type="matrix" values="0 0 0 0 0.99609375  0 0 0 0 0.99609375  0 0 0 0 0.99609375  0 0 0 1 0" class="icon-fecolormatrix"/></filter> <filter id="colorsb5619853821"><feColorMatrix type="matrix" values="0 0 0 0 0  0 0 0 0 0  0 0 0 0 0  0 0 0 1 0" class="icon-fecolormatrix"/></filter></defs></g> <g transform="translate(0,62.62211990356445)"><g data-gra="path-name" fill-rule="" class="tp-name iconsvg-namesvg" transform="translate(0,0)"><g transform="scale(1)"><g><path d="M8.45 0L4.73 0 4.73-37.74 20.36-37.74Q22.8-37.74 24.85-36.71 26.9-35.67 28.39-33.99 29.87-32.32 30.73-30.19 31.58-28.07 31.58-25.89L31.58-25.89Q31.58-23.55 30.78-21.4 29.98-19.24 28.55-17.6 27.11-15.95 25.12-14.94 23.12-13.93 20.68-13.93L20.68-13.93 8.45-13.93 8.45 0ZM8.45-34.45L8.45-17.22 20.52-17.22Q22.17-17.22 23.52-17.94 24.88-18.66 25.83-19.85 26.79-21.05 27.32-22.62 27.85-24.19 27.85-25.89L27.85-25.89Q27.85-27.64 27.24-29.21 26.63-30.78 25.6-31.95 24.56-33.12 23.15-33.78 21.74-34.45 20.2-34.45L20.2-34.45 8.45-34.45ZM40.67 0L37.05 0 37.05-27.7 40.67-27.7 40.67 0ZM40.67-33.49L37.05-33.49 37.05-38.81 40.67-38.81 40.67-33.49ZM45.45-27.7L49.33-27.7 57.62-16.85 58.05-16.05 58.47-16.85 66.77-27.7 70.65-27.7 60.07-13.77 70.65 0 66.77 0 58.47-10.79 58.05-11.54 57.62-10.79 49.33 0 45.45 0 56.03-13.77 45.45-27.7ZM86.22 0.53L86.22 0.53Q83.19 0.53 80.67-0.61 78.14-1.75 76.28-3.75 74.42-5.74 73.38-8.35 72.35-10.95 72.35-13.93L72.35-13.93Q72.35-16.85 73.38-19.43 74.42-22.01 76.26-23.95 78.09-25.89 80.64-27.03 83.19-28.17 86.17-28.17L86.17-28.17Q89.2-28.17 91.72-27.03 94.25-25.89 96.06-23.92 97.86-21.95 98.87-19.4 99.88-16.85 99.88-13.98L99.88-13.98Q99.88-13.56 99.88-13.13 99.88-12.7 99.83-12.55L99.83-12.55 76.12-12.55Q76.28-10.31 77.16-8.43 78.04-6.54 79.42-5.16 80.8-3.77 82.58-3 84.36-2.23 86.38-2.23L86.38-2.23Q87.71-2.23 89.04-2.6 90.37-2.98 91.49-3.61 92.6-4.25 93.51-5.18 94.41-6.11 94.89-7.23L94.89-7.23 98.02-6.38Q97.39-4.84 96.22-3.59 95.05-2.34 93.51-1.41 91.96-0.48 90.1 0.03 88.24 0.53 86.22 0.53ZM76.07-15.31L96.43-15.31Q96.27-17.54 95.39-19.38 94.52-21.21 93.16-22.54 91.8-23.87 90.02-24.61 88.24-25.36 86.22-25.36L86.22-25.36Q84.2-25.36 82.4-24.61 80.59-23.87 79.23-22.54 77.88-21.21 77.05-19.35 76.23-17.49 76.07-15.31L76.07-15.31ZM105.63-5.05L105.63-38.81 109.24-38.81 109.24-6.27Q109.24-4.73 110.09-3.85 110.94-2.98 112.48-2.98L112.48-2.98Q113.07-2.98 113.86-3.14 114.66-3.3 115.35-3.56L115.35-3.56 115.99-0.64Q114.98-0.21 113.52 0.05 112.06 0.32 110.99 0.32L110.99 0.32Q108.5 0.32 107.06-1.09 105.63-2.5 105.63-5.05L105.63-5.05Z" transform="translate(-4.730000019073486, 38.810001373291016)"/></g> <!----> <!----> <!----> <!----> <!----> <!----> <!----></g></g> <g data-gra="path-slogan" fill-rule="" class="tp-slogan iconsvg-slogansvg" fill="#feffff" transform="translate(37.62999725341797,46.34000015258789)"><!----> <!----> <g transform="scale(1, 1)"><g transform="scale(1)"><path d="M1.08 0L1.08-7.87L5.62-7.87L5.62-7.03L2.08-7.03L2.08-4.37L5.08-4.37L5.08-3.53L2.08-3.53L2.08 0L1.08 0ZM7.01 0L7.01-7.87L8.00-7.87L8.00 0L7.01 0ZM10.16 0L10.16-7.87L11.20-7.87L14.04-2.93L14.89-1.30L14.94-1.30Q14.90-1.90 14.86-2.54Q14.82-3.18 14.82-3.80L14.82-3.80L14.82-7.87L15.77-7.87L15.77 0L14.74 0L11.88-4.96L11.03-6.58L10.98-6.58Q11.03-5.98 11.07-5.36Q11.11-4.74 11.11-4.12L11.11-4.12L11.11 0L10.16 0ZM17.93 0L17.93-7.87L19.90-7.87Q21.72-7.87 22.67-6.86Q23.62-5.86 23.62-3.97L23.62-3.97Q23.62-3.04 23.38-2.30Q23.14-1.56 22.67-1.05Q22.20-0.54 21.52-0.27Q20.83 0 19.94 0L19.94 0L17.93 0ZM18.92-0.82L19.82-0.82Q21.20-0.82 21.89-1.64Q22.58-2.47 22.58-3.97L22.58-3.97Q22.58-5.47 21.89-6.26Q21.20-7.06 19.82-7.06L19.82-7.06L18.92-7.06L18.92-0.82ZM25.31 0L25.31-7.87L29.84-7.87L29.84-7.03L26.30-7.03L26.30-4.56L29.29-4.56L29.29-3.71L26.30-3.71L26.30-0.85L29.96-0.85L29.96 0L25.31 0ZM32.63-7.07L32.63-4.14L33.95-4.14Q34.87-4.14 35.36-4.52Q35.86-4.90 35.86-5.66L35.86-5.66Q35.86-6.44 35.36-6.76Q34.87-7.07 33.95-7.07L33.95-7.07L32.63-7.07ZM37.08 0L35.95 0L34.06-3.32L32.63-3.32L32.63 0L31.63 0L31.63-7.87L34.09-7.87Q34.69-7.87 35.20-7.76Q35.71-7.64 36.08-7.38Q36.44-7.12 36.65-6.70Q36.85-6.28 36.85-5.66L36.85-5.66Q36.85-4.74 36.37-4.19Q35.89-3.64 35.09-3.43L35.09-3.43L37.08 0Z" transform="translate(-1.08, 7.872)"/></g></g></g></g></g>
</svg>