<svg xmlns="http://www.w3.org/2000/svg" version="1.1" xmlns:xlink="http://www.w3.org/1999/xlink" xmlns:svgjs="http://svgjs.dev/svgjs" width="1000" height="224" viewBox="0 0 1000 224"><g transform="matrix(1,0,0,1,-0.6060606060606233,0.13649422523248234)"><svg viewBox="0 0 396 89" data-background-color="#ffffff" preserveAspectRatio="xMidYMid meet" height="224" width="1000" xmlns="http://www.w3.org/2000/svg" xmlns:xlink="http://www.w3.org/1999/xlink"><g id="tight-bounds" transform="matrix(1,0,0,1,0.2400000000000091,-0.054232080561121165)"><svg viewBox="0 0 395.52 89.10846416112221" height="89.10846416112221" width="395.52"><g><svg viewBox="0 0 528.0297467418245 118.96217577758472" height="89.10846416112221" width="395.52"><g transform="matrix(1,0,0,1,132.5097467418245,30.787847228496965)"><svg viewBox="0 0 395.52 57.38648132059079" height="57.38648132059079" width="395.52"><g id="textblocktransform"><svg viewBox="0 0 395.52 57.38648132059079" height="57.38648132059079" width="395.52" id="textblock"><g><svg viewBox="0 0 395.52 57.38648132059079" height="57.38648132059079" width="395.52"><g transform="matrix(1,0,0,1,0,0)"><svg width="395.52" viewBox="1.22 -31.88 224.78 32.61" height="57.38648132059079" data-palette-color="#111111"><path d="M15.7 0L16.04-2.03 10.25-2.98 10.25-28.47Q10.5-28.49 11.32-28.55 12.13-28.61 12.74-28.61L12.74-28.61Q16.67-28.61 18.57-26.45 20.46-24.29 20.46-20.9L20.46-20.9Q20.46-17.63 18.53-15.95 16.6-14.28 12.67-14.18L12.67-14.18 11.38-14.16 11.82-12.13 12.52-12.11Q13.6-12.06 14.26-12.06L14.26-12.06Q17.24-12.06 19.82-13.29 22.41-14.53 23.96-16.75 25.51-18.97 25.51-21.78L25.51-21.78Q25.51-26.71 22.14-28.67 18.77-30.64 13.26-30.64L13.26-30.64Q10.5-30.64 7.71-30.35 4.93-30.05 1.64-29.57L1.64-29.57 1.39-27.69 5.57-26.95 5.57-2.95 1.49-1.81 1.22 0 15.7 0ZM31.35-26.12Q32.13-26.12 32.82-26.53 33.52-26.93 33.92-27.61 34.32-28.3 34.32-29.1L34.32-29.1Q34.32-30.27 33.44-31.08 32.57-31.88 31.35-31.88L31.35-31.88Q30.17-31.88 29.31-31.09 28.44-30.3 28.44-29.15L28.44-29.15Q28.44-28.34 28.83-27.65 29.22-26.95 29.89-26.54 30.56-26.12 31.35-26.12L31.35-26.12ZM25.53 0L37.25 0 37.52-1.95 33.62-2.83 33.62-21 33.01-21.61 26.14-21.04 25.83-19.19 29.51-17.85 29.51-2.83 25.83-1.93 25.53 0ZM38.3 0L47.77 0 48.02-1.81 44.55-2.78 48.97-8.57 53.32-2.78 50.19-1.78 49.87 0 60.74 0 60.96-1.81 58.2-2.78 51.95-11.4 57.56-18.73 60.1-19.7 60.42-21.53 51.26-21.53 50.92-19.68 54.27-18.65 50.19-13.4 46.38-18.73 49.19-19.7 49.51-21.53 38.91-21.53 38.67-19.68 41.55-18.65 47.14-10.64 41.16-2.78 38.54-1.78 38.3 0ZM71.65 0.73Q74.04 0.73 76.13-0.13 78.22-1 79.68-2.54L79.68-2.54 79.17-3.83Q77.97-3.2 77.07-2.91 76.16-2.61 75.48-2.55 74.8-2.49 73.63-2.49L73.63-2.49Q71.48-2.49 69.98-3.72 68.47-4.96 67.69-6.88 66.91-8.81 66.81-10.86L66.81-10.86 78.63-11.01Q78.78-11.65 78.9-12.63 79.02-13.62 79.02-14.18L79.02-14.18Q79.02-16.67 78.15-18.42 77.29-20.17 75.8-21.06 74.31-21.95 72.5-21.95L72.5-21.95Q70.06-21.95 67.74-20.56 65.42-19.17 63.95-16.55 62.47-13.94 62.47-10.45L62.47-10.45Q62.47-6.91 63.76-4.37 65.06-1.83 67.17-0.55 69.28 0.73 71.65 0.73L71.65 0.73ZM71.31-19.56Q74.68-19.56 74.68-15.01L74.68-15.01Q74.68-14.65 74.64-14.12 74.6-13.6 74.53-13.33L74.53-13.33 66.86-12.77Q66.98-15.01 67.66-16.54 68.33-18.07 69.3-18.81 70.28-19.56 71.31-19.56L71.31-19.56ZM81 0L92.67 0 92.96-1.95 89.08-2.83 89.08-31.13 88.47-31.71 81.44-31.18 81.14-29.32 85-28 85-2.83 81.26-1.93 81 0ZM101.86-28.52L106.31-27.49 106.31-2.95 102.23-1.81 102.04 0 116.46 0 116.78-2.03 111.04-2.98 111.04-14.11 117.73-14.11 118.47-9.72 120.61-10.06 121.27-19.63 119.08-19.29 118.05-16.36 111.04-16.36 111.04-28.13 122.4-28.13 123.23-22.85 125.38-22.51 126.38-30.37 102.13-30.37 101.86-28.52ZM132.45-26.12Q133.23-26.12 133.93-26.53 134.63-26.93 135.03-27.61 135.43-28.3 135.43-29.1L135.43-29.1Q135.43-30.27 134.55-31.08 133.67-31.88 132.45-31.88L132.45-31.88Q131.28-31.88 130.41-31.09 129.55-30.3 129.55-29.15L129.55-29.15Q129.55-28.34 129.94-27.65 130.33-26.95 131-26.54 131.67-26.12 132.45-26.12L132.45-26.12ZM126.64 0L138.36 0 138.63-1.95 134.72-2.83 134.72-21 134.11-21.61 127.25-21.04 126.94-19.19 130.62-17.85 130.62-2.83 126.94-1.93 126.64 0ZM151.13 0L151.47-1.93 147.83-2.78 147.83-16.48Q148.73-17.48 150-18.03 151.27-18.58 152.64-18.58L152.64-18.58Q154.57-18.58 155.73-17.47 156.89-16.36 156.89-14.09L156.89-14.09 156.89-2.78 153.52-1.78 153.28 0 164.24 0 164.48-1.93 160.97-2.78 160.97-15.04Q160.97-18.33 159.45-20.14 157.94-21.95 155.08-21.95L155.08-21.95Q152.93-21.95 151.03-20.85 149.13-19.75 147.73-18.09L147.73-18.09 147.49-18.09 147.9-21.22 147.49-21.68 140.21-20.73 139.97-18.87 143.73-17.6 143.73-2.78 140.04-1.78 139.8 0 151.13 0ZM174.05 0.51Q176.37 0.51 177.98-0.51 179.59-1.54 180.81-3.2L180.81-3.2 181.03-3.2 181.03-3.03Q181.03-1.44 181.97-0.44 182.91 0.56 184.67 0.56L184.67 0.56Q185.77 0.56 186.46 0.48 187.16 0.39 188.26 0.1L188.26 0.1 188.53-1.93 187.43-2.17Q186.38-2.42 185.88-2.62 185.38-2.83 185.07-3.43 184.77-4.03 184.77-5.25L184.77-5.25 184.77-31.03 184.25-31.62 177.47-31.03 177.13-29.2 180.84-27.86 180.84-24.02 181.13-20.9 180.96-20.9Q180.35-21.34 179.15-21.66 177.96-21.97 176.76-21.97L176.76-21.97Q174.22-21.97 171.74-20.36 169.26-18.75 167.68-15.94 166.09-13.13 166.09-9.74L166.09-9.74Q166.09-6.49 167.15-4.17 168.21-1.86 170.03-0.67 171.85 0.51 174.05 0.51L174.05 0.51ZM175.59-19.58Q176.88-19.58 178.38-18.68 179.88-17.77 180.81-16.26L180.81-16.26 180.81-4.81Q180.1-3.98 178.65-3.27 177.2-2.56 175.78-2.56L175.78-2.56Q174.22-2.56 173-3.55 171.78-4.54 171.08-6.51 170.39-8.47 170.39-11.28L170.39-11.28Q170.39-15.06 171.63-17.32 172.88-19.58 175.59-19.58L175.59-19.58ZM199.34 0.73Q201.73 0.73 203.82-0.13 205.91-1 207.37-2.54L207.37-2.54 206.86-3.83Q205.66-3.2 204.76-2.91 203.86-2.61 203.17-2.55 202.49-2.49 201.32-2.49L201.32-2.49Q199.17-2.49 197.67-3.72 196.17-4.96 195.39-6.88 194.6-8.81 194.51-10.86L194.51-10.86 206.32-11.01Q206.47-11.65 206.59-12.63 206.71-13.62 206.71-14.18L206.71-14.18Q206.71-16.67 205.85-18.42 204.98-20.17 203.49-21.06 202-21.95 200.19-21.95L200.19-21.95Q197.75-21.95 195.43-20.56 193.11-19.17 191.64-16.55 190.16-13.94 190.16-10.45L190.16-10.45Q190.16-6.91 191.45-4.37 192.75-1.83 194.86-0.55 196.97 0.73 199.34 0.73L199.34 0.73ZM199-19.56Q202.37-19.56 202.37-15.01L202.37-15.01Q202.37-14.65 202.33-14.12 202.29-13.6 202.22-13.33L202.22-13.33 194.56-12.77Q194.68-15.01 195.35-16.54 196.02-18.07 197-18.81 197.97-19.56 199-19.56L199-19.56ZM222.9 0L223.14-2.12 217.45-2.95 217.45-12.3Q217.7-14.04 218.42-15.23 219.14-16.43 220.02-17.03 220.9-17.63 221.63-17.63L221.63-17.63Q222.34-17.63 223.12-17.37 223.9-17.11 224.61-16.67L224.61-16.67Q226-17.85 226-19.38L226-19.38Q226-20.48 225.24-21.3 224.48-22.12 223.29-22.12L223.29-22.12Q222.19-22.12 221.07-21.37 219.94-20.63 218.94-19.14 217.94-17.65 217.31-15.53L217.31-15.53 216.84-15.53 217.33-21.14 216.77-21.73 209.76-20.83 209.42-18.97 213.4-17.77 213.4-2.78 209.66-1.81 209.42 0 222.9 0Z" opacity="1" transform="matrix(1,0,0,1,0,0)" fill="#111111" class="wordmark-text-0" data-fill-palette-color="primary" id="text-0"></path></svg></g></svg></g></svg></g></svg></g><g><svg viewBox="0 0 118.96217577758472 118.96217577758472" height="118.96217577758472" width="118.96217577758472"><g><svg></svg></g><g id="icon-0"><svg viewBox="0 0 118.96217577758472 118.96217577758472" height="118.96217577758472" width="118.96217577758472"><g><path transform="scale(1.18962,1.18962)" d="M30 100c-16.569 0-30-13.431-30-30v-40c0-16.569 13.431-30 30-30h40c16.569 0 30 13.431 30 30v40c0 16.569-13.431 30-30 30z" fill="#000000" fill-rule="nonzero" stroke="none" stroke-width="1" stroke-linecap="butt" stroke-linejoin="miter" stroke-miterlimit="10" stroke-dasharray="" stroke-dashoffset="0" font-family="none" font-weight="none" font-size="none" text-anchor="none" style="mix-blend-mode: normal" data-fill-palette-color="accent"></path></g><g transform="matrix(1,0,0,1,23.792435155516934,33.64535840211961)"><svg viewBox="0 0 71.37730546655085 51.671458973345494" height="51.671458973345494" width="71.37730546655085"><g><svg version="1.0" xmlns="http://www.w3.org/2000/svg" xmlns:xlink="http://www.w3.org/1999/xlink" x="0" y="0" viewBox="0 0 100 72.392" enable-background="new 0 0 100 72.392" xml:space="preserve" width="71.37730546655085" height="51.671458973345494" class="icon-z$-0" data-fill-palette-color="quaternary" id="z$-0"><path d="M58.823 17.958c7.955 0 14.862 4.381 18.675 10.834l22.476 0.026V16.637c0-4.533-3.647-8.21-8.121-8.21H8.096C3.608 8.427 0 12.104 0 16.637l0.023 12.078 40.112 0.027C43.975 22.312 50.854 17.958 58.823 17.958" fill="#ffffff" data-fill-palette-color="quaternary"></path><path d="M21.006 4.56h-7.451l-0.861 2.715h8.931L21.006 4.56z" fill="#ffffff" data-fill-palette-color="quaternary"></path><path d="M88.191 3.112h-9.921L76.51 7.3H89.8L88.191 3.112z" fill="#ffffff" data-fill-palette-color="quaternary"></path><path d="M54.137 5.854h-8.539V1.678h8.539V5.854zM61.965 0H37.855l-4.967 7.352h33.625L61.965 0z" fill="#ffffff" data-fill-palette-color="quaternary"></path><path d="M78.663 30.97c1.243 2.767 1.977 5.813 1.977 9.055 0 12.18-9.77 22.067-21.816 22.067-12.062 0-21.829-9.888-21.829-22.067 0-3.242 0.723-6.288 1.976-9.069H0v33.252c0 4.507 3.608 8.184 8.096 8.184h83.756c4.474 0 8.121-3.677 8.121-8.184L100 30.97H78.663z" fill="#ffffff" data-fill-palette-color="quaternary"></path><path d="M70.72 32.775c-0.342-0.615-0.773-1.192-1.242-1.741-2.547-3.1-6.359-5.138-10.654-5.138-4.309 0-8.121 2.026-10.668 5.112-0.468 0.563-0.9 1.14-1.267 1.767-1.278 2.127-2.052 4.585-2.052 7.25 0 7.788 6.26 14.114 13.987 14.114 7.689 0 13.95-6.326 13.95-14.114C72.773 37.361 72.013 34.903 70.72 32.775" fill="#ffffff" data-fill-palette-color="quaternary"></path></svg></g></svg></g></svg></g></svg></g></svg></g><defs></defs></svg><rect width="395.52" height="89.10846416112221" fill="none" stroke="none" visibility="hidden"></rect></g></svg></g></svg>